<svg width="17" height="11" viewBox="0 0 17 11" fill="none" xmlns="http://www.w3.org/2000/svg">
<path d="M8.50002 10.9584C8.30558 10.9584 8.11745 10.9167 7.93565 10.8334C7.75287 10.7501 7.60072 10.639 7.47919 10.5001L0.770853 2.83341C0.503492 2.52786 0.369812 2.13897 0.369812 1.66675C0.369812 1.19452 0.503492 0.805636 0.770853 0.500081C1.03821 0.194525 1.37849 0.041748 1.79169 0.041748C2.20488 0.041748 2.54516 0.194525 2.81252 0.500081L8.50002 7.00008L14.1875 0.500081C14.4549 0.194525 14.7952 0.041748 15.2084 0.041748C15.6215 0.041748 15.9618 0.194525 16.2292 0.500081C16.4965 0.805636 16.6302 1.19452 16.6302 1.66675C16.6302 2.13897 16.4965 2.52786 16.2292 2.83341L9.52085 10.5001C9.37502 10.6667 9.21703 10.7845 9.0469 10.8534C8.87676 10.9234 8.69446 10.9584 8.50002 10.9584Z" fill="#479F77"/>
</svg>
