<svg width="56" height="56" viewBox="0 0 56 56" fill="none" xmlns="http://www.w3.org/2000/svg">
<circle cx="28.25" cy="28" r="27.5" fill="#4ECB86"/>
<path d="M14.1704 45.6C13.2024 45.6 12.374 45.2556 11.6853 44.5668C10.9954 43.8769 10.6504 43.048 10.6504 42.08V20.96C10.6504 19.992 10.9954 19.1636 11.6853 18.4748C12.374 17.7849 13.2024 17.44 14.1704 17.44H19.7144L22.9704 13.92H33.5304V19.2C34.4984 19.2 35.3274 19.5449 36.0173 20.2348C36.706 20.9236 37.0504 21.752 37.0504 22.72H45.8504V42.08C45.8504 43.048 45.506 43.8769 44.8173 44.5668C44.1273 45.2556 43.2984 45.6 42.3304 45.6H14.1704ZM28.2504 39.44C30.4504 39.44 32.3207 38.6703 33.8613 37.1308C35.4007 35.5903 36.1704 33.72 36.1704 31.52C36.1704 29.32 35.4007 27.4497 33.8613 25.9091C32.3207 24.3697 30.4504 23.6 28.2504 23.6C26.0504 23.6 24.1801 24.3697 22.6395 25.9091C21.1001 27.4497 20.3304 29.32 20.3304 31.52C20.3304 33.72 21.1001 35.5903 22.6395 37.1308C24.1801 38.6703 26.0504 39.44 28.2504 39.44ZM28.2504 35.92C27.0184 35.92 25.9771 35.4946 25.1264 34.644C24.2757 33.7933 23.8504 32.752 23.8504 31.52C23.8504 30.288 24.2757 29.2466 25.1264 28.396C25.9771 27.5453 27.0184 27.12 28.2504 27.12C29.4824 27.12 30.5237 27.5453 31.3744 28.396C32.2251 29.2466 32.6504 30.288 32.6504 31.52C32.6504 32.752 32.2251 33.7933 31.3744 34.644C30.5237 35.4946 29.4824 35.92 28.2504 35.92ZM43.4744 20.96C43.4744 18.672 42.6824 16.736 41.0984 15.152C39.5144 13.568 37.5784 12.776 35.2904 12.776V10.4C38.2237 10.4 40.7171 11.4266 42.7704 13.48C44.8237 15.5333 45.8504 18.0266 45.8504 20.96H43.4744ZM38.8104 20.96C38.8104 19.992 38.466 19.1636 37.7773 18.4748C37.0874 17.7849 36.2584 17.44 35.2904 17.44V15.064C36.9037 15.064 38.2748 15.636 39.4035 16.78C40.5334 17.924 41.1277 19.3173 41.1864 20.96H38.8104Z" fill="white"/>
</svg>
