<svg width="30" height="32" viewBox="0 0 30 32" fill="none" xmlns="http://www.w3.org/2000/svg">
<path d="M22.1325 20.9288C25.9375 18.8435 28.8219 17.2545 29.0705 17.1309C29.8659 16.7088 30.6872 15.5914 29.0705 14.7234C28.5485 14.4505 25.7382 12.911 22.1325 10.9255L17.134 15.9643L22.1325 20.9287V20.9288Z" fill="#FFD900"/>
<path d="M17.134 15.9644L1.21826 31.9754C1.59184 32.0248 2.0136 31.9259 2.51084 31.653C3.5548 31.0826 14.6218 25.0501 22.1325 20.9301L17.134 15.9644Z" fill="#F43249"/>
<path d="M17.1341 15.9643L22.1326 10.9504C22.1326 10.9504 3.63037 0.871656 2.51092 0.276696C2.08916 0.0273633 1.61653 -0.0466994 1.1936 0.0273634L17.1341 15.9643Z" fill="#00EE76"/>
<path d="M17.1341 15.9645L1.19365 0.0275879C0.546713 0.176884 0 0.747389 0 1.91414V30.089C0 31.1569 0.423046 31.9261 1.21838 32.0002L17.1341 15.9645Z" fill="#00D3FF"/>
</svg>
