<svg width="46" height="54" viewBox="0 0 46 54" fill="none" xmlns="http://www.w3.org/2000/svg">
<path fill-rule="evenodd" clip-rule="evenodd" d="M41.9333 46.0933C43.5067 43.6933 44.0933 42.4667 45.2933 39.7733C36.44 36.4133 35.0267 23.8 43.7733 18.9733C41.1067 15.6133 37.3467 13.6667 33.8 13.6667C31.24 13.6667 29.48 14.3333 27.9067 14.9467C26.5733 15.4533 25.3733 15.9067 23.88 15.9067C22.28 15.9067 20.8667 15.4 19.3733 14.8667C17.7467 14.28 16.04 13.6667 13.9067 13.6667C9.93333 13.6667 5.69333 16.0933 3 20.2533C-0.78667 26.12 -0.120004 37.1067 5.98666 46.4933C8.17333 49.8533 11.1067 53.6133 14.92 53.6667C16.52 53.6933 17.56 53.2133 18.7067 52.7067C20.0133 52.12 21.4267 51.48 23.9067 51.48C26.3867 51.4533 27.7733 52.12 29.08 52.7067C30.2 53.2133 31.2133 53.6933 32.7867 53.6667C36.6533 53.6133 39.7467 49.4533 41.9333 46.0933ZM33.24 0.333328C33.6667 3.26666 32.4667 6.17333 30.8933 8.19999C29.2133 10.3867 26.28 12.0933 23.4533 11.9867C22.9467 9.15999 24.2533 6.25333 25.8533 4.30666C27.64 2.17333 30.6533 0.519995 33.24 0.333328Z" fill="black"/>
</svg>
