<svg width="46" height="46" viewBox="0 0 46 46" fill="none" xmlns="http://www.w3.org/2000/svg">
<path d="M45.3615 32.3293C45.3615 40.4941 40.4941 45.3615 32.3293 45.3615H29.66C28.4263 45.3615 27.4169 44.3521 27.4169 43.1185V30.1759C27.4169 29.5703 27.9104 29.0544 28.516 29.0544L32.4638 28.9871C32.7779 28.9646 33.047 28.7403 33.1143 28.4263L33.8994 24.142C33.9147 24.0449 33.9087 23.9457 33.8818 23.8511C33.855 23.7565 33.808 23.6689 33.744 23.5943C33.68 23.5197 33.6007 23.4598 33.5113 23.4188C33.422 23.3778 33.3248 23.3567 33.2265 23.357L28.4487 23.4242C27.8207 23.4242 27.3272 22.9308 27.3048 22.3251L27.215 16.8296C27.215 16.4707 27.5066 16.1567 27.888 16.1567L33.2714 16.067C33.6527 16.067 33.9443 15.7754 33.9443 15.394L33.8546 10.0106C33.8546 9.62932 33.563 9.33772 33.1816 9.33772L27.1253 9.42745C26.2412 9.44088 25.3685 9.62864 24.5571 9.97997C23.7457 10.3313 23.0116 10.8393 22.3969 11.4748C21.7822 12.1104 21.299 12.861 20.9749 13.6836C20.6508 14.5063 20.4922 15.3848 20.5082 16.2688L20.6204 22.4373C20.6428 23.0654 20.1494 23.5588 19.5213 23.5813L16.8296 23.6261C16.4483 23.6261 16.1567 23.9177 16.1567 24.299L16.224 28.5609C16.224 28.9422 16.5156 29.2338 16.8969 29.2338L19.5886 29.189C20.2166 29.189 20.7101 29.6824 20.7326 30.2881L20.9344 43.0736C20.9569 44.3297 19.9475 45.3615 18.6914 45.3615H13.5323C5.36748 45.3615 0.5 40.4941 0.5 32.3068V13.5323C0.5 5.36748 5.36748 0.5 13.5323 0.5H32.3293C40.4941 0.5 45.3615 5.36748 45.3615 13.5323V32.3293Z" fill="black"/>
</svg>
