<svg width="49" height="50" viewBox="0 0 49 50" fill="none" xmlns="http://www.w3.org/2000/svg">
<path d="M48.85 22.675C48.7884 22.0626 48.5006 21.4952 48.0429 21.0837C47.5852 20.6723 46.9905 20.4463 46.375 20.45H27.5C26.125 20.45 25 21.575 25 22.95V27.225C25 28.6 26.125 29.725 27.5 29.725H38.775C38.5 32.025 37 35.5 33.675 37.825C31.55 39.3 28.725 40.325 25 40.325C24.825 40.325 24.675 40.325 24.5 40.3C18.125 40.1 12.725 35.825 10.775 29.95C10.2342 28.3554 9.95563 26.6837 9.95 25C9.95 23.275 10.25 21.6 10.75 20.05C10.9 19.6 11.075 19.15 11.275 18.7C13.575 13.525 18.6 9.875 24.5 9.7C24.65 9.675 24.825 9.675 25 9.675C28.575 9.675 31.25 10.85 33.125 12.15C34.1 12.825 35.4 12.675 36.25 11.85L39.725 8.45C40.825 7.375 40.725 5.55 39.475 4.65C35.5 1.725 30.65 0 25 0C24.825 0 24.675 -2.32831e-08 24.5 0.025C19.9534 0.105536 15.5156 1.42959 11.6682 3.85352C7.82075 6.27746 4.71054 9.7087 2.675 13.775C0.975 17.175 0 20.975 0 25C0 29.025 0.975 32.825 2.675 36.225H2.7C4.73269 40.2883 7.83879 43.7177 11.6816 46.1415C15.5245 48.5653 19.9574 49.891 24.5 49.975C24.675 50 24.825 50 25 50C31.75 50 37.425 47.775 41.55 43.95C46.275 39.575 49 33.175 49 25.55C49 24.475 48.95 23.55 48.85 22.675Z" fill="black"/>
</svg>
